<svg width="50" height="50" viewBox="0 0 50 50" fill="none" xmlns="http://www.w3.org/2000/svg">
<path d="M10.4108 41.6736V17.8018" weight="bold" stroke="#FFF" stroke-width="1.5" stroke-linecap="round" stroke-linejoin="round"/>
<path d="M39.5895 17.8018V41.6736" stroke="#FFF" stroke-width="1.5" stroke-linecap="round" stroke-linejoin="round"/>
<path d="M6.24219 21.5071L22.2307 7.29509C23.81 5.89122 26.19 5.89122 27.7693 7.29509L43.7578 21.5071" stroke="#FFF" stroke-width="1.5" stroke-linecap="round" stroke-linejoin="round"/>
<path d="M7.28467 41.6736H42.7161" stroke="#FFF" stroke-width="1.5" stroke-linecap="round" stroke-linejoin="round"/>
<path fill-rule="evenodd" clip-rule="evenodd" d="M24.9997 26.0421V26.0421C28.4529 26.0421 31.2523 28.8414 31.2523 32.2947V32.2947C31.2523 32.8474 31.0327 33.3775 30.6418 33.7684C30.251 34.1593 29.7208 34.3789 29.1681 34.3789H20.8313C19.6802 34.3789 18.7471 33.4457 18.7471 32.2947V32.2947C18.7471 28.8414 21.5465 26.0421 24.9997 26.0421V26.0421Z" stroke="#FFF" stroke-width="1.5" stroke-linecap="round" stroke-linejoin="round"/>
<path d="M25.5212 19.7901C25.5208 20.0777 25.2875 20.3106 24.9999 20.3105C24.7123 20.3104 24.4792 20.0773 24.4791 19.7897C24.4789 19.5021 24.7118 19.2688 24.9994 19.2684C25.1379 19.2682 25.2707 19.3232 25.3685 19.421C25.4664 19.5189 25.5213 19.6517 25.5212 19.7901" stroke="#FFF" stroke-width="1.5" stroke-linecap="round" stroke-linejoin="round"/>
<path d="M31.7736 21.8744C31.7732 22.1619 31.5399 22.3949 31.2523 22.3948C30.9647 22.3946 30.7316 22.1615 30.7315 21.8739C30.7314 21.5863 30.9643 21.353 31.2519 21.3527C31.3903 21.3525 31.5231 21.4074 31.621 21.5053C31.7189 21.6031 31.7738 21.7359 31.7736 21.8744" stroke="#FFF" stroke-width="1.5" stroke-linecap="round" stroke-linejoin="round"/>
<path d="M19.2687 21.8744C19.2683 22.162 19.035 22.3949 18.7474 22.3948C18.4599 22.3946 18.2267 22.1615 18.2266 21.8739C18.2265 21.5863 18.4594 21.353 18.747 21.3527C18.8854 21.3525 19.0182 21.4074 19.1161 21.5053C19.214 21.6031 19.2689 21.7359 19.2687 21.8744" stroke="#FFF" stroke-width="1.5" stroke-linecap="round" stroke-linejoin="round"/>
</svg>
