<svg width="45" height="40" viewBox="0 0 45 40" fill="none" xmlns="http://www.w3.org/2000/svg">
<path d="M4.15644 31.5532C2.81565 31.5532 1.78772 31.1956 1.07263 30.4806C0.357543 29.7357 0 28.7077 0 27.3967V4.15644C0 2.81565 0.357543 1.78772 1.07263 1.07263C1.78772 0.357543 2.80075 0 4.11175 0C5.42274 0 6.43578 0.357543 7.15086 1.07263C7.86595 1.78772 8.22349 2.81565 8.22349 4.15644V24.7152H19.1286C20.2608 24.7152 21.1248 25.0131 21.7207 25.609C22.3465 26.2049 22.6593 27.0392 22.6593 28.1118C22.6593 29.2143 22.3465 30.0634 21.7207 30.6593C21.1248 31.2552 20.2608 31.5532 19.1286 31.5532H4.15644Z" fill="white"/>
<path d="M30.0635 40.0001C29.1399 40.0001 28.3801 39.7617 27.7842 39.285C27.2181 38.8083 26.8754 38.1826 26.7562 37.4079C26.637 36.663 26.7711 35.8437 27.1585 34.9498L29.4378 30.0336L22.5104 14.2123C21.9145 12.8715 21.9145 11.6946 22.5104 10.6815C23.1063 9.66851 24.2683 9.16199 25.9965 9.16199C26.9201 9.16199 27.6799 9.38545 28.2758 9.83238C28.8717 10.2495 29.408 11.0838 29.8847 12.3352L33.6389 22.0335L37.5719 12.2905C38.0486 11.0689 38.585 10.2495 39.1809 9.83238C39.8066 9.38545 40.6408 9.16199 41.6837 9.16199C42.9946 9.16199 43.9183 9.66851 44.4546 10.6815C45.0207 11.6946 45.0058 12.8715 44.4099 14.2123L34.2646 37.0057C33.7283 38.1677 33.1324 38.9573 32.4769 39.3744C31.8512 39.7915 31.0467 40.0001 30.0635 40.0001Z" fill="white"/>
</svg>
